<?xml version="1.0" encoding="iso-8859-1"?>
<!-- Generator: Adobe Illustrator 16.0.0, SVG Export Plug-In . SVG Version: 6.00 Build 0)  -->
<!DOCTYPE svg PUBLIC "-//W3C//DTD SVG 1.1//EN" "http://www.w3.org/Graphics/SVG/1.1/DTD/svg11.dtd">
<svg version="1.1" id="Capa_1" xmlns="http://www.w3.org/2000/svg" xmlns:xlink="http://www.w3.org/1999/xlink" x="0px" y="0px"
	 width="35.641px" height="35.64px" viewBox="0 0 41.641 41.64" style="enable-background:new 0 0 41.641 41.64;"
	 xml:space="preserve">
<g>
	<path d="M41.615,28.942l-0.484-2.729c-0.145-0.809-0.887-1.574-1.689-1.744l-2.406-0.508l-0.471-0.965
		c-0.041-0.084-0.109-0.146-0.188-0.193c0.396-0.545,0.716-1.17,0.951-1.797c0.448-0.161,0.897-0.562,1.028-1.082
		c0.173-0.688-0.01-1.307-0.438-1.573v-0.486c0.391-1.176,0.595-3.1-1.18-4.137c-0.797-0.465-1.449-0.484-1.947-0.322
		c-0.09-0.201,0.15-0.504,0.15-0.504c-0.41-0.014-0.624,0.205-0.712,0.328c-0.547-0.252-1.262-0.359-2.177-0.168
		c-2.941,0.617-3.306,4.467-2.762,5.293c-0.426,0.27-0.607,0.881-0.436,1.569c0.131,0.521,0.584,0.923,1.033,1.085
		c0.233,0.627,0.552,1.252,0.943,1.795c-0.076,0.049-0.144,0.109-0.184,0.191l-0.472,0.965l-2.405,0.508
		c-0.189,0.041-0.375,0.117-0.552,0.219l-1.529-0.322l-0.743-1.521c-0.043-0.088-0.116-0.151-0.2-0.2
		c0.646-0.843,1.16-1.833,1.535-2.827c0.658-0.237,1.32-0.825,1.512-1.59c0.255-1.014-0.014-1.918-0.644-2.312v-0.717
		c0.574-1.729,0.874-4.557-1.731-6.078c-1.167-0.682-2.137-0.727-2.867-0.488C22.44,8.335,22.78,7.907,22.78,7.907
		c-0.602-0.021-0.917,0.299-1.047,0.48C20.93,8.016,19.88,7.86,18.537,8.141c-4.313,0.903-4.861,6.557-4.07,7.789
		c-0.615,0.397-0.879,1.291-0.626,2.295c0.192,0.766,0.858,1.354,1.518,1.592c0.369,0.994,0.881,1.987,1.523,2.827
		c-0.081,0.051-0.152,0.113-0.195,0.199l-0.743,1.521l-1.529,0.321c-0.176-0.1-0.361-0.178-0.551-0.219L11.46,23.96l-0.471-0.966
		c-0.041-0.084-0.109-0.146-0.187-0.194c0.395-0.543,0.715-1.168,0.952-1.795c0.448-0.163,0.898-0.562,1.028-1.083
		c0.173-0.689-0.009-1.307-0.437-1.574v-0.485c0.391-1.179,0.594-3.103-1.18-4.138c-0.796-0.465-1.45-0.483-1.948-0.321
		C9.128,13.204,9.368,12.9,9.368,12.9c-0.41-0.014-0.624,0.205-0.712,0.328C8.11,12.976,7.396,12.87,6.48,13.06
		c-2.941,0.617-3.306,4.465-2.763,5.293c-0.425,0.271-0.606,0.882-0.434,1.57c0.131,0.521,0.584,0.922,1.034,1.084
		c0.233,0.627,0.551,1.252,0.944,1.795c-0.076,0.049-0.143,0.11-0.183,0.192L4.607,23.96L2.2,24.466
		c-0.804,0.17-1.546,0.938-1.69,1.746l-0.486,2.729c-0.078,0.437,0.032,0.871,0.301,1.19c0.269,0.321,0.678,0.506,1.122,0.506H9.44
		l-0.156,0.877c-0.104,0.582,0.035,1.138,0.391,1.562c0.355,0.427,0.877,0.658,1.469,0.658h19.352c0.583,0,1.118-0.24,1.47-0.658
		c0.354-0.424,0.494-0.979,0.392-1.562l-0.156-0.877h7.993c0.443,0,0.854-0.185,1.122-0.506
		C41.585,29.815,41.694,29.38,41.615,28.942z M37.354,27.872c-0.276,0-0.5,0.224-0.5,0.5v1.271h-4.83l-0.381-2.135
		c-0.191-1.082-1.174-2.104-2.245-2.357l0.825-0.176l2.511,1.453c0.076,0.045,0.164,0.067,0.25,0.067
		c0.049,0,0.099-0.008,0.146-0.021c0.132-0.041,0.243-0.135,0.303-0.26l0.177-0.361l0.176,0.361c0.062,0.125,0.172,0.219,0.305,0.26
		c0.047,0.015,0.097,0.021,0.146,0.021c0.087,0,0.174-0.022,0.25-0.067l2.509-1.453l2.24,0.474c0.404,0.086,0.839,0.534,0.912,0.942
		l0.484,2.729c0.025,0.146-0.003,0.28-0.083,0.375c-0.08,0.096-0.206,0.146-0.354,0.146h-2.343v-1.27
		C37.854,28.093,37.63,27.872,37.354,27.872z M31.374,31.694c0.051,0.285-0.012,0.549-0.174,0.742
		c-0.163,0.194-0.412,0.301-0.701,0.301h-3.675v-2.101c0-0.006-0.003-0.012-0.004-0.019c-0.011-0.269-0.227-0.481-0.496-0.481
		c-0.115,0-0.218,0.048-0.302,0.11c-0.118,0.093-0.198,0.229-0.198,0.39v2.101H15.82v-2.101c0-0.159-0.08-0.297-0.197-0.387
		c-0.085-0.065-0.187-0.113-0.303-0.113c-0.27,0-0.486,0.216-0.497,0.481c0,0.007-0.003,0.013-0.003,0.019v2.101h-3.673
		c-0.291,0-0.54-0.104-0.702-0.299c-0.162-0.195-0.224-0.459-0.173-0.744l0.188-1.054l0.089-0.5l0.089-0.5l0.349-1.959
		c0.124-0.69,0.834-1.426,1.522-1.571l1.684-0.354l0.552-0.115l0.531-0.111l0.628-0.133c0.015,0.01,0.025,0.023,0.042,0.035
		l3.708,2.146c0.077,0.045,0.164,0.067,0.25,0.067c0.049,0,0.098-0.008,0.146-0.021c0.132-0.041,0.242-0.135,0.303-0.26l0.47-0.964
		l0.47,0.964c0.062,0.125,0.171,0.219,0.303,0.26c0.049,0.016,0.098,0.021,0.146,0.021c0.087,0,0.174-0.022,0.25-0.067l3.708-2.146
		c0.018-0.012,0.025-0.025,0.042-0.035l0.627,0.133l0.532,0.111l0.552,0.115l1.684,0.354c0.688,0.146,1.398,0.881,1.521,1.571
		l0.35,1.959l0.089,0.5l0.089,0.5L31.374,31.694z M4.291,27.872c-0.276,0-0.5,0.224-0.5,0.5v1.271H1.45
		c-0.149,0-0.275-0.053-0.355-0.147c-0.08-0.094-0.109-0.229-0.083-0.375l0.486-2.729c0.072-0.407,0.507-0.855,0.912-0.941
		l2.24-0.474l2.509,1.452c0.077,0.045,0.164,0.068,0.25,0.068c0.049,0,0.098-0.008,0.146-0.021c0.132-0.041,0.243-0.136,0.303-0.261
		l0.176-0.36l0.177,0.36c0.061,0.125,0.171,0.22,0.304,0.261c0.047,0.015,0.097,0.021,0.146,0.021c0.087,0,0.174-0.023,0.25-0.068
		l2.509-1.452l0.826,0.176c-1.073,0.255-2.054,1.274-2.246,2.356l-0.38,2.136H4.79v-1.271C4.791,28.093,4.567,27.872,4.291,27.872z
		 M10.53,24.335l-0.573,0.332l-1.083,0.627L8.67,24.876l0.609-0.354l0.647-0.373l0.4-0.231l0.172,0.352L10.53,24.335z M5.743,23.917
		l0.4,0.231l0.647,0.373l0.608,0.354l-0.204,0.418l-1.083-0.627l-0.573-0.332l0.032-0.066L5.743,23.917z M17.189,24.102l0.165-0.339
		l0.384,0.222l0.647,0.375l0.648,0.375l1.162,0.672l-0.506,1.037l-2.339-1.354l-0.502-0.291l0.062-0.129L17.189,24.102z
		 M24.733,24.671l0.062,0.129l-0.502,0.291l-2.339,1.354l-0.506-1.037l1.162-0.672l0.646-0.375l0.647-0.375l0.385-0.223l0.164,0.339
		L24.733,24.671z M36.104,24.335l-0.573,0.332l-1.083,0.627l-0.204-0.418l0.609-0.354l0.646-0.373l0.399-0.231l0.172,0.352
		L36.104,24.335z M31.317,23.917l0.399,0.231l0.646,0.373l0.608,0.354l-0.203,0.418l-1.083-0.627l-0.573-0.332l0.032-0.066
		L31.317,23.917z M30.36,20.457c-0.237,0.051-0.788-0.248-0.896-0.684c-0.111-0.445-0.006-0.859,0.235-0.928
		c0.072-0.021,0.146-0.004,0.221,0.036v-0.665c0.001-0.003,0.002-0.003,0.004-0.005c-0.001-0.008-0.002-0.021-0.004-0.03v-0.229
		c0.061-0.562,0.592-1.629,3.521-0.67c1.008,0.33,1.626-0.193,1.94-0.888c0.998,0.107,1.664,1.24,1.918,1.938v0.549
		c0.072-0.04,0.147-0.057,0.22-0.036c0.241,0.067,0.348,0.481,0.236,0.928c-0.107,0.432-0.655,0.729-0.893,0.684
		c-0.288,0.876-0.835,1.972-1.606,2.677c-0.147,0.136-0.306,0.252-0.47,0.354c-0.194,0.121-0.399,0.213-0.616,0.274
		c-0.181,0.049-0.366,0.082-0.562,0.082c-0.192,0-0.378-0.031-0.557-0.08c-0.224-0.062-0.434-0.153-0.631-0.274
		c-0.171-0.104-0.334-0.229-0.487-0.371C31.178,22.421,30.646,21.345,30.36,20.457z M16.048,19.01
		c-0.35,0.074-1.158-0.365-1.318-1.006c-0.164-0.652-0.008-1.262,0.347-1.361c0.105-0.028,0.215-0.006,0.324,0.052v-0.978
		c0.002-0.002,0.004-0.004,0.006-0.008c-0.002-0.012-0.004-0.029-0.006-0.045V15.33c0.087-0.826,0.868-2.396,5.173-0.984
		c1.482,0.484,2.397-0.285,2.858-1.305c1.462,0.162,2.438,1.822,2.812,2.844v0.809c0.055-0.028,0.107-0.049,0.163-0.059
		c-0.002,0.008,0,0.021-0.003,0.027c0.012,0.012,0.033,0.004,0.062-0.023c0.034-0.002,0.067-0.006,0.103,0.004
		c0.354,0.101,0.51,0.709,0.348,1.361c-0.159,0.635-0.962,1.072-1.311,1.006c-0.54,1.641-1.701,3.809-3.377,4.635
		c-0.436,0.213-0.902,0.343-1.406,0.343c-0.509,0-0.98-0.128-1.417-0.341C17.73,22.831,16.59,20.692,16.048,19.01z M4.785,20.457
		c-0.238,0.051-0.788-0.248-0.896-0.684c-0.111-0.445-0.006-0.859,0.236-0.928c0.072-0.021,0.146-0.004,0.22,0.036v-0.665
		c0.001-0.003,0.002-0.003,0.004-0.005c-0.001-0.008-0.002-0.021-0.004-0.03v-0.229c0.06-0.562,0.592-1.629,3.521-0.67
		c1.008,0.33,1.626-0.193,1.941-0.888c0.998,0.107,1.664,1.24,1.918,1.938v0.549c0.073-0.04,0.148-0.057,0.22-0.036
		c0.241,0.067,0.347,0.481,0.236,0.928c-0.108,0.432-0.655,0.729-0.892,0.684c-0.288,0.876-0.835,1.972-1.607,2.677
		c-0.147,0.136-0.305,0.252-0.469,0.354c-0.194,0.121-0.4,0.213-0.617,0.272c-0.18,0.051-0.366,0.084-0.562,0.084
		c-0.193,0-0.378-0.031-0.556-0.08c-0.222-0.062-0.433-0.153-0.631-0.274c-0.171-0.104-0.334-0.229-0.487-0.371
		C5.605,22.421,5.072,21.345,4.785,20.457z"/>
</g>
<g>
</g>
<g>
</g>
<g>
</g>
<g>
</g>
<g>
</g>
<g>
</g>
<g>
</g>
<g>
</g>
<g>
</g>
<g>
</g>
<g>
</g>
<g>
</g>
<g>
</g>
<g>
</g>
<g>
</g>
</svg>
